<svg width="18" height="18" viewBox="0 0 18 18" fill="none" xmlns="http://www.w3.org/2000/svg">
<path d="M9 4.875C10.3791 4.87041 11.7314 5.25509 12.9016 5.98479C14.0718 6.7145 15.0123 7.75962 15.615 9C14.3775 11.5275 11.85 13.125 9 13.125C6.15 13.125 3.6225 11.5275 2.385 9C2.98771 7.75962 3.92822 6.7145 5.09841 5.98479C6.26859 5.25509 7.62095 4.87041 9 4.875ZM9 3.375C5.25 3.375 2.0475 5.7075 0.75 9C2.0475 12.2925 5.25 14.625 9 14.625C12.75 14.625 15.9525 12.2925 17.25 9C15.9525 5.7075 12.75 3.375 9 3.375ZM9 7.125C9.49728 7.125 9.97419 7.32254 10.3258 7.67417C10.6775 8.02581 10.875 8.50272 10.875 9C10.875 9.49728 10.6775 9.97419 10.3258 10.3258C9.97419 10.6775 9.49728 10.875 9 10.875C8.50272 10.875 8.02581 10.6775 7.67417 10.3258C7.32254 9.97419 7.125 9.49728 7.125 9C7.125 8.50272 7.32254 8.02581 7.67417 7.67417C8.02581 7.32254 8.50272 7.125 9 7.125ZM9 5.625C7.14 5.625 5.625 7.14 5.625 9C5.625 10.86 7.14 12.375 9 12.375C10.86 12.375 12.375 10.86 12.375 9C12.375 7.14 10.86 5.625 9 5.625Z" fill="#ABAAAA"/>
</svg>
